<svg width="45" height="44" viewBox="0 0 45 44" fill="none" xmlns="http://www.w3.org/2000/svg">
<rect x="0.75" y="0.25" width="43.5" height="43.5" rx="21.75" fill="white"/>
<rect x="0.75" y="0.25" width="43.5" height="43.5" rx="21.75" stroke="black" stroke-width="0.5"/>
<path d="M19.4999 27.75C19.0899 27.75 18.7499 27.41 18.7499 27V22.81L18.0299 23.53C17.7399 23.82 17.2599 23.82 16.9699 23.53C16.6799 23.24 16.6799 22.76 16.9699 22.47L18.9699 20.47C19.1799 20.26 19.5099 20.19 19.7899 20.31C20.0699 20.42 20.2499 20.7 20.2499 21V27C20.2499 27.41 19.9099 27.75 19.4999 27.75Z" fill="#805DAB"/>
<path d="M21.4999 23.75C21.3099 23.75 21.1199 23.68 20.9699 23.53L18.9699 21.53C18.6799 21.24 18.6799 20.76 18.9699 20.47C19.2599 20.18 19.7399 20.18 20.0299 20.47L22.0299 22.47C22.3199 22.76 22.3199 23.24 22.0299 23.53C21.8799 23.68 21.6899 23.75 21.4999 23.75Z" fill="#805DAB"/>
<path d="M25.5 32.75H19.5C14.07 32.75 11.75 30.43 11.75 25V19C11.75 13.57 14.07 11.25 19.5 11.25H24.5C24.91 11.25 25.25 11.59 25.25 12C25.25 12.41 24.91 12.75 24.5 12.75H19.5C14.89 12.75 13.25 14.39 13.25 19V25C13.25 29.61 14.89 31.25 19.5 31.25H25.5C30.11 31.25 31.75 29.61 31.75 25V20C31.75 19.59 32.09 19.25 32.5 19.25C32.91 19.25 33.25 19.59 33.25 20V25C33.25 30.43 30.93 32.75 25.5 32.75Z" fill="#805DAB"/>
<path d="M32.5 20.75H28.5C25.08 20.75 23.75 19.42 23.75 16V12C23.75 11.7 23.93 11.42 24.21 11.31C24.49 11.19 24.81 11.26 25.03 11.47L33.03 19.47C33.24 19.68 33.31 20.01 33.19 20.29C33.07 20.57 32.8 20.75 32.5 20.75ZM25.25 13.81V16C25.25 18.58 25.92 19.25 28.5 19.25H30.69L25.25 13.81Z" fill="#805DAB"/>
</svg>
